PathFileType  4	(X/Y/Z) C:\Users\antoi\Documents\MyRepositories\mobilecap\ResultsAnalysis
DataRate	CameraRate	NumFrames	NumMarkers	Units	OrigDataRate	OrigDataStartFrame	OrigNumFrames
100.0	100.0	5	51	mm	100.0	30	234
Frame#	Time	r_knee			r_shank_antsup			r_ankle			r_calc			r_5meta			r_toe			L_knee			L_shank_antsup			L_ankle			L_calc			L_5meta			L_toe			r_sh2			r_sh3			r_sh4			L_sh2			L_sh3			r_thigh1			r_thigh2			r_thigh3			r_thigh4			r_thigh5			L_thigh1			L_thigh2			L_thigh3			L_thigh4			r.ASIS			r.PSIS			L.ASIS			L.PSIS			C7			R_Shoulder			L_Shoulder			R_Sternum			L_Sternum			R_humerus			R_elbow_med			R_elbow_lat			R_forearm			R_wrist_radius			R_wrist_ulna			L_humerus			L_elbow_med			L_elbow_lat			L_forearm			L_wrist_radius			L_wrist_ulna			R_HJC			L_HJC			R_HJC_reg			L_HJC_reg			
		X1	Y1	Z1	X2	Y2	Z2	X3	Y3	Z3	X4	Y4	Z4	X5	Y5	Z5	X6	Y6	Z6	X7	Y7	Z7	X8	Y8	Z8	X9	Y9	Z9	X10	Y10	Z10	X11	Y11	Z11	X12	Y12	Z12	X13	Y13	Z13	X14	Y14	Z14	X15	Y15	Z15	X16	Y16	Z16	X17	Y17	Z17	X18	Y18	Z18	X19	Y19	Z19	X20	Y20	Z20	X21	Y21	Z21	X22	Y22	Z22	X23	Y23	Z23	X24	Y24	Z24	X25	Y25	Z25	X26	Y26	Z26	X27	Y27	Z27	X28	Y28	Z28	X29	Y29	Z29	X30	Y30	Z30	X31	Y31	Z31	X32	Y32	Z32	X33	Y33	Z33	X34	Y34	Z34	X35	Y35	Z35	X36	Y36	Z36	X37	Y37	Z37	X38	Y38	Z38	X39	Y39	Z39	X40	Y40	Z40	X41	Y41	Z41	X42	Y42	Z42	X43	Y43	Z43	X44	Y44	Z44	X45	Y45	Z45	X46	Y46	Z46	X47	Y47	Z47	X48	Y48	Z48	X49	Y49	Z49	X50	Y50	Z50	X51	Y51	Z51	

30	0.29000000	-1165.78709	800.56969	-461.38382	-1129.02785	727.75101	-473.64976	-1252.25150	406.81204	-469.58796	-1322.54611	370.45812	-505.46746	-1151.68075	357.22860	-430.94214	-1103.73729	385.89366	-484.66709	-1191.49142	797.16036	-749.02195	-1167.10189	700.57989	-747.55132	-1276.21569	404.82313	-724.70753	-1342.70408	370.51676	-684.85015	-1169.88546	353.05325	-763.89725	-1131.35765	377.72876	-707.80617	-1171.34047	623.77174	-448.79904	-1202.36214	754.79688	-447.57212	-1240.47277	650.25549	-440.95601	-1252.14458	723.29449	-761.95572	-1270.72397	602.22412	-768.56345	-1169.75534	1120.73921	-435.55618	-1153.60321	1010.43259	-439.48452	-1259.21276	986.60063	-438.00103	-1281.95126	1101.90388	-434.24431	-1206.78018	976.45416	-419.78335	-1176.33521	1066.17080	-808.00047	-1158.54586	932.76018	-775.62616	-1290.38211	1052.02591	-783.74912	-1265.83233	915.02075	-763.36137	-1151.49075	1255.45821	-487.65520	-1311.81214	1346.67475	-580.68738	-1126.11486	1235.27402	-733.17207	-1306.72677	1350.92753	-682.60149	-1139.53973	1723.35725	-635.52517	-1057.55307	1653.68693	-453.97059	-1056.12539	1668.88144	-806.17685	-1018.40157	1647.15232	-606.44144	-1011.30068	1650.57288	-643.77244	-1083.56496	1515.84465	-395.63011	-1199.63989	1332.03204	-439.06891	-1172.31322	1335.84385	-372.34528	-1108.59349	1208.71308	-379.10844	-1081.88098	1077.06348	-395.39075	-1103.70299	1068.80788	-368.56626	-1057.12705	1545.09440	-860.73682	-1166.11426	1331.74931	-806.73082	-1121.76628	1338.46407	-872.10918	-1070.24242	1237.46443	-845.96742	-1052.08880	1083.76006	-835.15029	-1068.63485	1078.71202	-860.77451	-1246.78344	1202.19504	-515.55452	-1227.92738	1193.33718	-720.97160	-1234.25223	1193.71891	-528.11825	-1226.11272	1200.52502	-691.22146	
31	0.30000000	-1165.00771	800.40902	-461.35393	-1128.89676	727.60912	-474.56621	-1252.61814	406.99412	-469.37780	-1322.64467	370.35343	-505.49984	-1151.76926	357.48653	-430.96112	-1104.01601	386.24548	-484.84323	-1189.28454	796.60402	-748.36925	-1165.36980	700.02955	-746.88608	-1276.32514	404.89621	-724.45211	-1342.78534	370.51265	-684.77065	-1169.93268	353.10507	-763.56436	-1131.44474	377.89855	-707.72683	-1171.16128	623.37921	-449.27310	-1202.08084	754.42858	-447.57910	-1240.24819	650.05934	-440.72422	-1250.17241	723.47265	-761.38160	-1269.72006	602.46216	-767.99078	-1169.76758	1120.04526	-435.61989	-1153.61771	1009.90257	-440.11593	-1259.21555	985.90406	-438.36446	-1282.04186	1101.32116	-433.99307	-1206.76806	975.71125	-420.20485	-1176.14956	1065.33623	-807.60717	-1157.49220	932.12106	-775.19834	-1290.06882	1050.70784	-783.01149	-1264.46944	914.01924	-762.96002	-1150.77647	1253.92396	-487.40138	-1310.49316	1347.13315	-579.62731	-1126.70320	1233.72621	-733.40330	-1305.69481	1351.40155	-681.56476	-1133.17266	1721.40404	-633.93660	-1051.35465	1650.41108	-452.95490	-1050.26752	1666.61230	-805.13650	-1012.66678	1643.89002	-605.37589	-1005.90193	1647.15373	-642.23545	-1078.61403	1512.79064	-394.98791	-1197.62637	1330.04229	-438.40982	-1169.28693	1333.62112	-371.81383	-1106.15569	1206.19909	-379.30451	-1079.83661	1074.30393	-395.96154	-1101.58228	1066.53036	-368.76190	-1052.25482	1542.80660	-859.67662	-1162.94816	1330.65720	-808.30497	-1118.44801	1336.92327	-871.68501	-1067.58305	1235.55754	-845.62819	-1050.13094	1081.97436	-835.04111	-1066.54535	1076.97976	-861.03604	-1246.76995	1201.77808	-515.05031	-1228.98888	1192.99791	-720.56621	-1234.56512	1193.13152	-527.71925	-1226.87513	1199.97142	-691.07615	
32	0.31000000	-1164.69657	800.18720	-461.19808	-1128.59418	727.45683	-475.21963	-1252.41921	407.35787	-468.75098	-1322.24648	370.48737	-505.34818	-1151.63659	357.53860	-431.06357	-1103.94819	386.24670	-485.09314	-1186.97439	796.01697	-747.66940	-1163.37005	699.54727	-746.33129	-1276.21192	404.97266	-723.97412	-1342.67222	370.54940	-684.57013	-1169.84473	353.15135	-763.09324	-1131.36642	377.90161	-707.31279	-1170.64354	622.82587	-449.66838	-1201.59235	753.93709	-447.16423	-1239.56134	649.10559	-440.37139	-1248.05351	723.55233	-760.56655	-1268.37632	602.49984	-767.31502	-1169.56648	1119.71527	-436.18169	-1153.17621	1009.41184	-440.65844	-1258.73487	985.45869	-438.26760	-1281.75208	1100.98606	-433.50028	-1206.26680	975.33527	-420.25154	-1176.03107	1064.49224	-807.18446	-1156.26862	931.41675	-774.82081	-1289.73735	1049.31110	-782.08408	-1263.03372	912.79469	-762.25003	-1150.02522	1252.16179	-487.42094	-1309.11630	1347.63516	-578.59528	-1127.09026	1232.43960	-733.64463	-1304.40079	1351.79361	-680.49750	-1126.61002	1719.23931	-632.12263	-1044.95666	1646.91648	-452.04894	-1044.28323	1664.14666	-803.99392	-1006.95344	1640.26880	-604.55847	-999.57037	1643.79088	-641.78477	-1073.49048	1509.47704	-394.37855	-1196.17470	1328.01902	-437.03908	-1166.10782	1331.20276	-371.25332	-1103.57708	1203.55491	-379.50963	-1077.64621	1071.64216	-396.72340	-1099.38752	1063.84918	-369.39693	-1047.20537	1540.38187	-858.69555	-1159.58046	1328.89262	-807.73267	-1115.11389	1335.21260	-871.21673	-1064.90386	1233.51566	-845.27902	-1048.07438	1080.12039	-835.15060	-1064.45226	1075.35997	-861.58113	-1246.65649	1201.18819	-514.77844	-1229.82028	1192.82833	-720.39358	-1234.92927	1192.87815	-527.67741	-1227.36733	1199.54686	-691.09399	
33	0.32000000	-1164.58755	799.82482	-461.07062	-1128.15816	727.00489	-475.21270	-1252.09226	407.36583	-468.49237	-1321.92590	370.51904	-505.13159	-1151.50243	357.55676	-431.11937	-1103.83888	386.20216	-485.23974	-1184.55661	795.40734	-746.84532	-1161.06681	699.03204	-745.70657	-1275.97099	405.04027	-723.35762	-1342.48673	370.65530	-684.40881	-1169.73075	353.23693	-762.69796	-1131.19734	377.84224	-706.87583	-1169.94808	622.44176	-449.85504	-1200.83454	753.52474	-446.64604	-1238.91470	648.81425	-439.85039	-1245.67758	723.48704	-759.59573	-1266.63541	602.53475	-766.65491	-1169.07576	1119.60524	-437.14353	-1152.29253	1009.13578	-441.16428	-1257.94739	985.18847	-437.76566	-1281.14484	1100.70901	-432.70674	-1205.27156	975.47104	-419.54992	-1175.84699	1063.72723	-806.91528	-1154.97033	930.79768	-774.44194	-1289.36121	1047.81628	-781.13401	-1261.59962	911.33371	-761.09098	-1149.13228	1250.38169	-487.55868	-1307.58106	1348.10000	-577.63714	-1127.79330	1230.94474	-733.82374	-1302.95798	1352.16727	-679.58148	-1119.76516	1716.76467	-630.55572	-1038.39569	1643.20080	-451.04138	-1038.09258	1661.44933	-802.79802	-1001.19794	1636.22767	-604.20616	-992.45648	1640.57763	-642.68236	-1068.25703	1505.99627	-393.63007	-1194.09686	1326.46657	-434.72131	-1162.68007	1328.55804	-370.64931	-1100.82220	1200.70483	-379.65050	-1075.31289	1069.01706	-397.64478	-1097.15243	1060.74297	-370.68427	-1042.06391	1537.76595	-857.54007	-1156.17961	1326.68524	-805.31442	-1111.76758	1333.31265	-870.87351	-1062.21501	1231.34753	-844.90777	-1045.94789	1078.17718	-835.61673	-1062.42358	1073.56941	-861.92658	-1246.52420	1200.67579	-514.45341	-1230.82532	1192.51747	-720.16633	-1235.29502	1192.53233	-527.71694	-1227.88642	1199.04986	-691.06567	
34	0.33000000	-1163.92663	799.44423	-460.85203	-1127.57866	726.49315	-474.89399	-1251.98194	406.94312	-468.71819	-1321.85782	370.40020	-504.97929	-1151.47677	357.55145	-431.07013	-1103.83861	386.23450	-485.17417	-1181.93631	794.78680	-746.04966	-1158.63001	698.41272	-744.89846	-1275.75880	405.09601	-722.71780	-1342.35512	370.77298	-684.30583	-1169.67228	353.37110	-762.40567	-1131.05778	377.81526	-706.56479	-1169.47985	622.28116	-449.64718	-1200.03167	753.25803	-446.27211	-1238.48744	649.02380	-439.37766	-1243.05566	723.46083	-758.86382	-1264.84262	602.79856	-766.13975	-1168.42408	1119.55156	-438.14841	-1151.00859	1009.08374	-441.94033	-1256.84483	984.95223	-436.67724	-1280.26140	1100.35031	-431.51485	-1203.83892	975.93265	-418.43276	-1175.48170	1062.89519	-806.73927	-1153.63290	930.18740	-773.86663	-1288.85380	1046.21245	-780.22346	-1260.00057	909.88085	-760.02729	-1148.78281	1248.84870	-487.43595	-1305.89286	1348.48845	-576.75963	-1129.63167	1228.32561	-733.84157	-1301.54877	1352.53396	-678.80208	-1112.71429	1714.02083	-629.11716	-1031.74779	1639.21035	-449.90943	-1031.72514	1658.41308	-801.56833	-995.17751	1631.92979	-603.89584	-985.68387	1636.98866	-642.96489	-1062.93513	1502.33202	-392.75030	-1190.78275	1324.90466	-432.69982	-1158.94595	1325.60883	-370.08127	-1097.83155	1197.54814	-379.73336	-1072.82158	1066.11767	-398.41278	-1094.87002	1057.44594	-371.95212	-1036.85736	1534.87257	-856.26862	-1152.84133	1324.53313	-803.54019	-1108.39882	1331.20773	-870.56335	-1059.50273	1229.02366	-844.71503	-1043.77896	1076.07779	-836.00753	-1060.39783	1071.53060	-862.12760	-1247.04731	1200.55245	-513.59260	-1232.86407	1191.58576	-719.37415	-1236.28765	1191.63131	-527.33812	-1229.33077	1198.11018	-690.74829	
